<?xml version="1.0" encoding="utf-8"?>
<!-- Generator: Adobe Illustrator 16.0.0, SVG Export Plug-In . SVG Version: 6.00 Build 0)  -->
<!DOCTYPE svg PUBLIC "-//W3C//DTD SVG 1.1//EN" "http://www.w3.org/Graphics/SVG/1.1/DTD/svg11.dtd">
<svg version="1.1" id="Layer_1" xmlns="http://www.w3.org/2000/svg" xmlns:xlink="http://www.w3.org/1999/xlink" x="0px" y="0px"
	 width="16px" height="16px" viewBox="0 0 16 16" enable-background="new 0 0 16 16" xml:space="preserve">
<g>
	
		<linearGradient id="SVGID_1_" gradientUnits="userSpaceOnUse" x1="6.8804" y1="-1.7041" x2="5.0177" y2="-19.5034" gradientTransform="matrix(1 0 0 -1 0 17)">
		<stop  offset="0.0165" style="stop-color:#ED1C24"/>
		<stop  offset="1" style="stop-color:#BE1E2D"/>
	</linearGradient>
	<path fill="url(#SVGID_1_)" d="M12.054,10.75c-0.429,0.263-0.908,0.484-1.425,0.669c-0.47,0.192-1.05,0.341-1.688,0.421
		c-0.244,0.041-0.495,0.076-0.75,0.101l-0.004-0.001L8.183,11.94c-2.365,0.202-4.384-0.306-5.538-1.392
		c-0.011-0.008-0.019-0.021-0.029-0.029c-0.002,0.042-0.005,0.084-0.006,0.131c-0.006,0.493,0.2,0.951,0.507,1.312
		c0.937,1.075,2.739,1.662,4.834,1.694c1.396,0.009,2.668-0.253,3.646-0.723c0.483-0.237,0.9-0.528,1.22-0.889
		c0.313-0.359,0.524-0.812,0.53-1.307c0.002-0.311-0.078-0.604-0.216-0.871C12.848,10.189,12.489,10.48,12.054,10.75z M7.934,9.265
		C5.724,9.433,3.82,9.02,2.637,8.077C2.665,8.524,2.859,8.937,3.14,9.269c0.936,1.077,2.74,1.66,4.834,1.694
		c1.398,0.009,2.67-0.253,3.644-0.724c0.485-0.236,0.904-0.524,1.22-0.887c0.312-0.359,0.526-0.812,0.527-1.308
		c0.007-0.384-0.118-0.746-0.318-1.06C12.738,7.39,11.435,8.997,7.934,9.265z M7.997,8.269c1.398,0.008,2.669-0.253,3.643-0.724
		c0.487-0.237,0.906-0.525,1.222-0.889c0.312-0.356,0.526-0.81,0.529-1.303c0.004-0.496-0.199-0.951-0.507-1.314
		c-0.939-1.077-2.74-1.661-4.835-1.694c-1.396-0.01-2.669,0.252-3.642,0.721c-0.488,0.24-0.905,0.527-1.223,0.889
		C2.871,4.313,2.66,4.766,2.654,5.259C2.649,5.754,2.855,6.21,3.162,6.574C4.098,7.65,5.903,8.233,7.997,8.269z M3.918,4.203
		C4.428,3.581,6.01,2.976,7.86,3.006c1.238,0.008,2.346,0.272,3.097,0.655c0.378,0.188,0.658,0.404,0.824,0.607
		c0.171,0.205,0.227,0.373,0.227,0.527c-0.001,0.157-0.063,0.322-0.234,0.524c-0.507,0.622-2.09,1.228-3.942,1.196
		C6.594,6.508,5.485,6.243,4.735,5.861C4.36,5.673,4.078,5.454,3.91,5.254c-0.169-0.207-0.225-0.372-0.225-0.53
		C3.688,4.569,3.744,4.404,3.918,4.203z"/>
</g>
</svg>
