<?xml version="1.0" encoding="utf-8"?>
<!-- Generator: Adobe Illustrator 26.3.1, SVG Export Plug-In . SVG Version: 6.00 Build 0)  -->
<svg version="1.1" id="Layer_1" xmlns="http://www.w3.org/2000/svg" xmlns:xlink="http://www.w3.org/1999/xlink" x="0px" y="0px"
	 viewBox="0 0 16 16" style="enable-background:new 0 0 16 16;" xml:space="preserve">
<style type="text/css">
	.st0{fill:#022D2D;}
</style>
<path class="st0" d="M10,6.3C10,5,9.2,4.1,8.1,4.1C6.8,4.1,6,5,6,6.4v0.4c0,1.2,0.8,2,2.1,2C9.2,8.7,10,7.8,10,6.3L10,6.3z M3.5,2.3
	H6L6,4h0c0.3-1.1,1.4-1.8,2.8-1.8c2.3,0,3.8,1.6,3.8,4c0,2.6-1.5,4.4-3.8,4.4C7.2,10.6,6.3,10,5.9,9C6,9.6,6,10.4,6,10.7v3.1H3.5
	L3.5,2.3L3.5,2.3z"/>
</svg>
